<?xml version="1.0" ?><svg data-name="Layer 1" id="Layer_1" viewBox="0 0 140 140" xmlns="http://www.w3.org/2000/svg"><defs><style>.cls-1{fill:#52b1b1;}.cls-2{fill:#525354;}.cls-3{fill:#ccbeb0;}.cls-4{fill:#fff;}.cls-5{fill:#d7dadb;}</style></defs><title/><circle class="cls-1" cx="70" cy="70" r="64"/><rect class="cls-2" height="98" rx="1" ry="1" width="64" x="39" y="22"/><rect class="cls-3" height="98" rx="1" ry="1" width="64" x="38" y="21"/><rect class="cls-2" height="90" rx="1" ry="1" width="56" x="43" y="26"/><rect class="cls-4" height="90" rx="1" ry="1" width="56" x="42" y="25"/><rect class="cls-2" height="3" rx="1" ry="1" width="30" x="63" y="38"/><rect class="cls-2" height="3" rx="1" ry="1" width="18" x="63" y="45"/><path class="cls-1" d="M50.89,42.93l-1.39-1.39a1,1,0,0,0-1.41,0l-.83.83a1,1,0,0,0,0,1.41l3.64,3.64a1,1,0,0,0,1.41,0l1.54-1.54L58.75,41a1,1,0,0,0,0-1.41l-.83-.83a1,1,0,0,0-1.41,0l-4.2,4.2A1,1,0,0,1,50.89,42.93Z"/><rect class="cls-2" height="3" rx="1" ry="1" width="30" x="63" y="57"/><rect class="cls-2" height="3" rx="1" ry="1" width="18" x="63" y="64"/><path class="cls-1" d="M50.89,61.93l-1.39-1.39a1,1,0,0,0-1.41,0l-.83.83a1,1,0,0,0,0,1.41l3.64,3.64a1,1,0,0,0,1.41,0l1.54-1.54L58.75,60a1,1,0,0,0,0-1.41l-.83-.83a1,1,0,0,0-1.41,0l-4.2,4.2A1,1,0,0,1,50.89,61.93Z"/><rect class="cls-2" height="3" rx="1" ry="1" width="30" x="63" y="76"/><rect class="cls-2" height="3" rx="1" ry="1" width="18" x="63" y="83"/><path class="cls-1" d="M50.89,80.93l-1.39-1.39a1,1,0,0,0-1.41,0l-.83.83a1,1,0,0,0,0,1.41l3.64,3.64a1,1,0,0,0,1.41,0l1.54-1.54L58.75,79a1,1,0,0,0,0-1.41l-.83-.83a1,1,0,0,0-1.41,0l-4.2,4.2A1,1,0,0,1,50.89,80.93Z"/><rect class="cls-2" height="3" rx="1" ry="1" width="30" x="63" y="95"/><rect class="cls-2" height="3" rx="1" ry="1" width="18" x="63" y="102"/><path class="cls-1" d="M50.89,99.93l-1.39-1.39a1,1,0,0,0-1.41,0l-.83.83a1,1,0,0,0,0,1.41l3.64,3.64a1,1,0,0,0,1.41,0l1.54-1.54L58.75,98a1,1,0,0,0,0-1.41l-.83-.83a1,1,0,0,0-1.41,0l-4.2,4.2A1,1,0,0,1,50.89,99.93Z"/><rect class="cls-2" height="4" rx="1" ry="1" width="32" x="55" y="24.5"/><rect class="cls-5" height="4" rx="1" ry="1" width="32" x="54" y="23.5"/></svg>